<?xml version="1.0" encoding="iso-8859-1"?>
<!-- Uploaded to: SVG Repo, www.svgrepo.com, Generator: SVG Repo Mixer Tools -->
<svg height="800px" width="800px" version="1.1" id="Layer_1" xmlns="http://www.w3.org/2000/svg" xmlns:xlink="http://www.w3.org/1999/xlink" 
	 viewBox="0 0 506.8 506.8" xml:space="preserve">
<g>
	<circle style="fill:#13A289;" cx="356.8" cy="125.8" r="19.6"/>
	<circle style="fill:#13A289;" cx="483.2" cy="81.8" r="19.6"/>
	<circle style="fill:#13A289;" cx="253.2" cy="248.6" r="16"/>
	<circle style="fill:#13A289;" cx="150.8" cy="232.6" r="16"/>
	<circle style="fill:#13A289;" cx="99.6" cy="375" r="16"/>
	<circle style="fill:#13A289;" cx="20" cy="323.8" r="16"/>
</g>
<path d="M351.6,493.4c0-2,2-4,4-4l0,0c2,0,4,2,4,4l0,0c0,2-2,4-4,4l0,0C353.6,497.4,351.6,495.4,351.6,493.4z M351.6,481.4
	c0-2,2-4,4-4l0,0c2,0,4,2,4,4l0,0c0,2-2,4-4,4l0,0C353.6,485.4,351.6,483.4,351.6,481.4z M351.6,469.4c0-2,2-4,4-4l0,0c2,0,4,2,4,4
	l0,0c0,2-2,4-4,4l0,0C353.6,473.4,351.6,471.4,351.6,469.4z M351.6,457.4c0-2,2-4,4-4l0,0c2,0,4,2,4,4l0,0c0,2-2,4-4,4l0,0
	C353.6,461.4,351.6,459.4,351.6,457.4z M351.6,445.4c0-2,2-4,4-4l0,0c2,0,4,2,4,4l0,0c0,2-2,4-4,4l0,0
	C353.6,449.4,351.6,447.4,351.6,445.4z M351.6,433.4c0-2,2-4,4-4l0,0c2,0,4,2,4,4l0,0c0,2-2,4-4,4l0,0
	C353.6,437.4,351.6,435.4,351.6,433.4z M351.6,421.4c0-2,2-4,4-4l0,0c2,0,4,2,4,4l0,0c0,2-2,4-4,4l0,0
	C353.6,425.4,351.6,423.4,351.6,421.4z M351.6,409.4c0-2,2-4,4-4l0,0c2,0,4,2,4,4l0,0c0,2-2,4-4,4l0,0
	C353.6,413.4,351.6,411.4,351.6,409.4z M351.6,397.4c0-2,2-4,4-4l0,0c2,0,4,2,4,4l0,0c0,2-2,4-4,4l0,0
	C353.6,401.4,351.6,399.4,351.6,397.4z M351.6,385.4c0-2,2-4,4-4l0,0c2,0,4,2,4,4l0,0c0,2-2,4-4,4l0,0
	C353.6,389.4,351.6,387.4,351.6,385.4z M351.6,373.4c0-2,2-4,4-4l0,0c2,0,4,2,4,4l0,0c0,2-2,4-4,4l0,0
	C353.6,377.4,351.6,375.4,351.6,373.4z M351.6,361.4c0-2,2-4,4-4l0,0c2,0,4,2,4,4l0,0c0,2-2,4-4,4l0,0
	C353.6,365.4,351.6,363.4,351.6,361.4z M351.6,349.4c0-2,2-4,4-4l0,0c2,0,4,2,4,4l0,0c0,2-2,4-4,4l0,0
	C353.6,353.4,351.6,351.4,351.6,349.4z M351.6,337.4c0-2,2-4,4-4l0,0c2,0,4,2,4,4l0,0c0,2-2,4-4,4l0,0
	C353.6,341.4,351.6,339.4,351.6,337.4z M351.6,325.4c0-2,2-4,4-4l0,0c2,0,4,2,4,4l0,0c0,2-2,4-4,4l0,0
	C353.6,329.4,351.6,327.4,351.6,325.4z M351.6,313.4c0-2,2-4,4-4l0,0c2,0,4,2,4,4l0,0c0,2-2,4-4,4l0,0
	C353.6,317.4,351.6,315.4,351.6,313.4z M351.6,301.4c0-2,2-4,4-4l0,0c2,0,4,2,4,4l0,0c0,2-2,4-4,4l0,0
	C353.6,305.4,351.6,303.4,351.6,301.4z M351.6,289.4c0-2,2-4,4-4l0,0c2,0,4,2,4,4l0,0c0,2-2,4-4,4l0,0
	C353.6,293.4,351.6,291.4,351.6,289.4z M351.6,277.4c0-2,2-4,4-4l0,0c2,0,4,2,4,4l0,0c0,2-2,4-4,4l0,0
	C353.6,281.4,351.6,279.4,351.6,277.4z M351.6,265.4c0-2,2-4,4-4l0,0c2,0,4,2,4,4l0,0c0,2-2,4-4,4l0,0
	C353.6,269.4,351.6,267.4,351.6,265.4z M351.6,253.4c0-2.4,2-4,4-4l0,0c2,0,4,1.6,4,4l0,0c0,2-2,4-4,4l0,0
	C353.6,257.4,351.6,255.4,351.6,253.4z M351.6,241.4c0-2.4,2-4,4-4l0,0c2,0,4,1.6,4,4l0,0c0,2-2,4-4,4l0,0
	C353.6,245.4,351.6,243.4,351.6,241.4z M351.6,229.4c0-2.4,2-4,4-4l0,0c2,0,4,1.6,4,4l0,0c0,2-2,4-4,4l0,0
	C353.6,233.4,351.6,231.4,351.6,229.4z M351.6,217.4c0-2.4,2-4,4-4l0,0c2,0,4,1.6,4,4l0,0c0,2-2,4-4,4l0,0
	C353.6,221.4,351.6,219.4,351.6,217.4z M351.6,205.4c0-2.4,2-4,4-4l0,0c2,0,4,1.6,4,4l0,0c0,2-2,4-4,4l0,0
	C353.6,209.4,351.6,207.4,351.6,205.4z M351.6,193.4c0-2.4,2-4,4-4l0,0c2,0,4,1.6,4,4l0,0c0,2-2,4-4,4l0,0
	C353.6,197.4,351.6,195.4,351.6,193.4z M351.6,181.4c0-2.4,2-4,4-4l0,0c2,0,4,1.6,4,4l0,0c0,2-2,4-4,4l0,0
	C353.6,185.4,351.6,183.4,351.6,181.4z M351.6,169.4c0-2.4,2-4,4-4l0,0c2,0,4,1.6,4,4l0,0c0,2-2,4-4,4l0,0
	C353.6,173.4,351.6,171.4,351.6,169.4z M351.6,157.4c0-2.4,2-4,4-4l0,0c2,0,4,1.6,4,4l0,0c0,2-2,4-4,4l0,0
	C353.6,161.4,351.6,159.4,351.6,157.4z"/>
<path d="M351.6,97.4c0-2.4,2-4,4-4l0,0c2,0,4,1.6,4,4l0,0c0,2-2,4-4,4l0,0C353.6,101.4,351.6,99.4,351.6,97.4z M351.6,85.4
	c0-2.4,2-4,4-4l0,0c2,0,4,1.6,4,4l0,0c0,2-2,4-4,4l0,0C353.6,89.4,351.6,87.4,351.6,85.4z M351.6,73.4c0-2.4,2-4,4-4l0,0
	c2,0,4,1.6,4,4l0,0c0,2-2,4-4,4l0,0C353.6,77.4,351.6,75.4,351.6,73.4z M351.6,61.4c0-2.4,2-4,4-4l0,0c2,0,4,1.6,4,4l0,0
	c0,2-2,4-4,4l0,0C353.6,65.4,351.6,63.4,351.6,61.4z M351.6,49.4c0-2.4,2-4,4-4l0,0c2,0,4,1.6,4,4l0,0c0,2-2,4-4,4l0,0
	C353.6,53.4,351.6,51.4,351.6,49.4z M351.6,37.4c0-2.4,2-4,4-4l0,0c2,0,4,1.6,4,4l0,0c0,2-2,4-4,4l0,0
	C353.6,41.4,351.6,39.4,351.6,37.4z M351.6,25.4c0-2.4,2-4,4-4l0,0c2,0,4,1.6,4,4l0,0c0,2-2,4-4,4l0,0
	C353.6,29.4,351.6,27.4,351.6,25.4z M351.6,13.4c0-2.4,2-4,4-4l0,0c2,0,4,1.6,4,4l0,0c0,2-2,4-4,4l0,0
	C353.6,17.4,351.6,15.4,351.6,13.4z"/>
<path d="M356.8,149.8c-13.2,0-23.6-10.8-23.6-23.6s10.8-23.6,23.6-23.6c13.2,0,23.6,10.8,23.6,23.6S369.6,149.8,356.8,149.8z
	 M356.8,110.2c-8.8,0-15.6,7.2-15.6,15.6c0,8.8,7.2,15.6,15.6,15.6c8.8,0,15.6-7.2,15.6-15.6S365.2,110.2,356.8,110.2z"/>
<path d="M483.2,105.8c-13.2,0-23.6-10.8-23.6-23.6s10.8-23.6,23.6-23.6c13.2,0,23.6,10.8,23.6,23.6S496.4,105.8,483.2,105.8z
	 M483.2,66.2c-8.8,0-15.6,7.2-15.6,15.6c0,8.8,7.2,15.6,15.6,15.6c8.8,0,15.6-7.2,15.6-15.6C499.2,73.4,492,66.2,483.2,66.2z"/>
<path d="M253.2,268.6c-11.2,0-20-9.2-20-20c0-11.2,9.2-20,20-20c11.2,0,20,9.2,20,20C273.6,259.4,264.4,268.6,253.2,268.6z
	 M253.2,236.2c-6.8,0-12,5.6-12,12s5.6,12,12,12c6.4,0,12-5.6,12-12S260,236.2,253.2,236.2z"/>
<path d="M150.8,253c-11.2,0-20-9.2-20-20s9.2-20,20-20s20,9.2,20,20S161.6,253,150.8,253z M150.8,220.6c-6.8,0-12,5.6-12,12
	s5.6,12,12,12s12-5.6,12-12S157.2,220.6,150.8,220.6z"/>
<path d="M99.6,395c-11.2,0-20-9.2-20-20s9.2-20,20-20s20,9.2,20,20S110.4,395,99.6,395z M99.6,363c-6.8,0-12,5.6-12,12s5.6,12,12,12
	s12-5.6,12-12S106,363,99.6,363z"/>
<path d="M20,343.8c-11.2,0-20-9.2-20-20s9.2-20,20-20s20,9.2,20,20S31.2,343.8,20,343.8z M20,311.4c-6.8,0-12,5.6-12,12
	c0,6.8,5.6,12,12,12c6.8,0,12-5.6,12-12C32.4,317,26.8,311.4,20,311.4z"/>
<path d="M72,361.4c-0.8,0-1.6-0.4-2-0.8l-38.4-24.8c-2-1.2-2.4-3.6-1.2-5.6s3.6-2.4,5.6-1.2l38.4,24.8c2,1.2,2.4,3.6,1.2,5.6
	C74.4,360.6,73.2,361.4,72,361.4z"/>
<path d="M105.2,362.6c-0.4,0-0.8,0-1.2-0.4c-2-0.8-3.2-3.2-2.4-5.2l35.2-97.6c0.8-2,3.2-3.2,5.2-2.4c2,0.8,3.2,3.2,2.4,5.2
	l-35.2,97.6C108.4,361.8,106.8,362.6,105.2,362.6z"/>
<path d="M222,247.8c-0.4,0-0.4,0-0.8,0l-55.6-8.4c-2-0.4-3.6-2.4-3.2-4.4c0.4-2,2.4-3.6,4.4-3.2l55.6,8.4c2,0.4,3.6,2.4,3.2,4.4
	C226,246.2,224,247.8,222,247.8z"/>
<path d="M264,239.8c-0.8,0-2-0.4-2.4-0.8c-1.6-1.6-2-4-0.4-5.6l70-82.4c1.6-1.6,4-2,5.6-0.4s2,4,0.4,5.6l-70,82.4
	C266.4,239.4,265.2,239.8,264,239.8z"/>
<path d="M376,124.2c-1.6,0-3.2-1.2-3.6-2.8c-0.8-2,0.4-4.4,2.4-5.2l72-25.6c2-0.8,4.4,0.4,5.2,2.4c0.8,2-0.4,4.4-2.4,5.2l-72,25.6
	C376.8,124.2,376.4,124.2,376,124.2z"/>
</svg>