<?xml version="1.0" ?><!-- Uploaded to: SVG Repo, www.svgrepo.com, Generator: SVG Repo Mixer Tools -->
<svg width="800px" height="800px" viewBox="0 0 28 28" fill="none" xmlns="http://www.w3.org/2000/svg"><path d="M22.0545 5.94619C24.2785 8.17032 24.2785 11.7763 22.0545 14.0005L20.6067 15.4483C20.2943 15.7608 20.2943 16.2673 20.6067 16.5797L21.0862 17.0592C21.3986 17.3716 21.9051 17.3716 22.2175 17.0592L23.6653 15.6113C26.7789 12.4976 26.7789 7.44912 23.6653 4.33534C20.5517 1.22155 15.5035 1.22155 12.3898 4.33534L10.942 5.78321C10.6296 6.09563 10.6296 6.60218 10.942 6.91461L11.4215 7.39406C11.7339 7.70649 12.2404 7.70649 12.5528 7.39407L14.0006 5.94619C16.2246 3.72206 19.8305 3.72206 22.0545 5.94619Z" fill="#000000"/><path d="M5.94601 22.0538C8.17004 24.278 11.7759 24.278 13.9999 22.0538L15.4477 20.606C15.7601 20.2935 16.2667 20.2935 16.5791 20.606L17.0585 21.0854C17.3709 21.3979 17.3709 21.9044 17.0585 22.2168L15.6107 23.6647C12.4971 26.7785 7.44886 26.7785 4.33523 23.6647C1.22159 20.5509 1.22159 15.5025 4.33523 12.3887L5.78303 10.9408C6.09544 10.6284 6.60197 10.6284 6.91438 10.9408L7.39382 11.4203C7.70623 11.7327 7.70623 12.2393 7.39382 12.5517L5.94601 13.9996C3.72198 16.2237 3.72198 19.8297 5.94601 22.0538Z" fill="#000000"/><path d="M17.8593 9.80361C17.5078 9.45213 16.938 9.45213 16.5865 9.80361L9.80535 16.5851C9.45389 16.9366 9.45389 17.5064 9.80535 17.8579L10.1434 18.1959C10.4948 18.5474 11.0647 18.5474 11.4161 18.1959L18.1973 11.4145C18.5487 11.063 18.5487 10.4931 18.1973 10.1416L17.8593 9.80361Z" fill="#000000"/></svg>