<?xml version="1.0" encoding="utf-8"?><!-- Uploaded to: SVG Repo, www.svgrepo.com, Generator: SVG Repo Mixer Tools -->
<svg width="800px" height="800px" viewBox="0 0 24 24" fill="none" xmlns="http://www.w3.org/2000/svg">
<path d="M3.88827 13.6276L4.6278 13.5028V13.5028L3.88827 13.6276ZM3.87982 13.5776L3.14028 13.7024L3.14028 13.7024L3.87982 13.5776ZM3.87982 11.052L4.61936 11.1769L4.61936 11.1769L3.87982 11.052ZM3.88827 11.002L3.14873 10.8772L3.14873 10.8772L3.88827 11.002ZM11.6998 6.75269L12.218 7.29486L12.218 7.29486L11.6998 6.75269ZM12.3085 6.17086L11.7903 5.62869L11.7903 5.62869L12.3085 6.17086ZM6.80005 7.71564L6.56558 7.00323H6.56558L6.80005 7.71564ZM6.56525 17.6263C6.95864 17.756 7.38267 17.5422 7.51235 17.1488C7.64202 16.7554 7.42824 16.3314 7.03485 16.2017L6.56525 17.6263ZM19.7413 5.03033C20.0342 4.73744 20.0342 4.26256 19.7413 3.96967C19.4484 3.67678 18.9735 3.67678 18.6807 3.96967L19.7413 5.03033ZM3.96966 18.6807C3.67676 18.9735 3.67676 19.4484 3.96965 19.7413C4.26255 20.0342 4.73742 20.0342 5.03031 19.7413L3.96966 18.6807ZM9.53929 8.02778H10.3688V6.52778H9.53929V8.02778ZM4.6278 13.5028L4.61936 13.4528L3.14028 13.7024L3.14873 13.7525L4.6278 13.5028ZM4.61936 11.1769L4.6278 11.1268L3.14873 10.8772L3.14028 10.9272L4.61936 11.1769ZM12.218 7.29486L12.8267 6.71303L11.7903 5.62869L11.1816 6.21052L12.218 7.29486ZM4.61936 13.4528C4.49209 12.6988 4.49209 11.9308 4.61936 11.1769L3.14028 10.9272C2.98512 11.8464 2.98512 12.7832 3.14028 13.7024L4.61936 13.4528ZM7.03452 8.42805C7.83906 8.16325 8.68586 8.02778 9.53929 8.02778V6.52778C8.5275 6.52778 7.52236 6.68833 6.56558 7.00323L7.03452 8.42805ZM7.03485 16.2017L7.03255 16.2009L6.56296 17.6255L6.56525 17.6263L7.03485 16.2017ZM7.03259 16.2009C5.74406 15.7761 4.83475 14.7288 4.6278 13.5028L3.14873 13.7525C3.45402 15.5611 4.77978 17.0376 6.56291 17.6255L7.03259 16.2009ZM10.3688 8.02778C11.0559 8.02778 11.7226 7.76841 12.218 7.29486L11.1816 6.21052C10.974 6.40896 10.682 6.52778 10.3688 6.52778V8.02778ZM6.56558 7.00323C4.7811 7.59055 3.45417 9.06763 3.14873 10.8772L4.6278 11.1268C4.83485 9.90021 5.74497 8.85247 7.03452 8.42805L6.56558 7.00323ZM12.8267 6.71303C14.0319 5.56111 16.0017 5.88877 16.7931 7.15106L18.064 6.35432C16.7763 4.3003 13.6933 3.80978 11.7903 5.62869L12.8267 6.71303ZM18.6807 3.96967L6.26742 16.3829L7.32808 17.4436L19.7413 5.03033L18.6807 3.96967ZM6.26742 16.3829L3.96966 18.6807L5.03031 19.7413L7.32808 17.4436L6.26742 16.3829Z" fill="#363853"/>
<path d="M12.3086 18.4587L11.7903 19.0009H11.7903L12.3086 18.4587ZM11.6998 17.8769L12.218 17.3347L12.218 17.3347L11.6998 17.8769ZM17.7955 17.0186L18.522 17.2047L17.7955 17.0186ZM10.3689 16.6018C9.95465 16.6018 9.61887 16.9376 9.61887 17.3518C9.61887 17.766 9.95465 18.1018 10.3689 18.1018V16.6018ZM19.0163 10.1205C18.9701 9.7089 18.5989 9.41268 18.1873 9.45891C17.7757 9.50514 17.4795 9.8763 17.5257 10.2879L19.0163 10.1205ZM12.8268 17.9166L12.218 17.3347L11.1816 18.4191L11.7903 19.0009L12.8268 17.9166ZM11.7903 19.0009C13.9681 21.0825 17.7688 20.1464 18.522 17.2047L17.0689 16.8326C16.6216 18.5793 14.2387 19.2661 12.8268 17.9166L11.7903 19.0009ZM10.3689 18.1018C10.6821 18.1018 10.974 18.2206 11.1816 18.4191L12.218 17.3347C11.7226 16.8612 11.0559 16.6018 10.3689 16.6018V18.1018ZM17.5257 10.2879C17.7709 12.4716 17.6188 14.6854 17.0689 16.8326L18.522 17.2047C19.117 14.8814 19.2818 12.4848 19.0163 10.1205L17.5257 10.2879Z" fill="#0095FF"/>
</svg>