<?xml version="1.0" encoding="iso-8859-1"?>
<!-- Uploaded to: SVG Repo, www.svgrepo.com, Generator: SVG Repo Mixer Tools -->
<!DOCTYPE svg PUBLIC "-//W3C//DTD SVG 1.1//EN" "http://www.w3.org/Graphics/SVG/1.1/DTD/svg11.dtd">
<svg fill="#000000" version="1.1" id="Capa_1" xmlns="http://www.w3.org/2000/svg" xmlns:xlink="http://www.w3.org/1999/xlink" 
	 width="800px" height="800px" viewBox="0 0 70.074 70.074"
	 xml:space="preserve">
<g>
	<path d="M69.888,45.851c-1.876,7.473-5.092,14.373-11.442,16.723c-16.556,6.124-34.405-5.657-46.9,1.66L0,52.691
		c6.189-2.618,14.078-12.698,23.242-13.876c4.762-0.613,10.763,2.085,16.722,2.64c5.242,0.488,14.111-2.295,14.964,3.521
		c0.734,5.032-8.147,4.761-14.083,5.278c4.645,0.929,9.655,5.27,13.479,4.211c4.932-1.359,7.491-8.641,10.924-10.753
		C69.135,41.318,70.638,42.855,69.888,45.851z M43.769,31.829v7.876c0.317-0.021,0.635-0.043,0.954-0.057
		c1.216-0.082,2.475-0.164,3.682-0.164c0.255,0,0.588,0.004,0.967,0.018c0.185-0.598,0.311-1.231,0.311-1.932
		c0-1.827-0.676-3.212-2.015-4.163C46.895,32.854,45.594,32.324,43.769,31.829z M36.35,22.22c0,1.443,0.479,2.579,1.443,3.391
		c0.967,0.82,2.267,1.391,3.896,1.708V17.029c-1.925,0.075-3.298,0.653-4.112,1.752C36.754,19.876,36.35,21.023,36.35,22.22z
		 M48.295,51.392c2.153,1.017,4.186,1.793,5.57,1.409c2.331-0.641,4.188-3.198,5.985-5.675c1.441-1.979,2.797-3.847,4.496-4.891
		c0.36-0.224,0.709-0.416,1.054-0.584c1.569-3.28,2.475-6.943,2.475-10.822c0-13.896-11.269-25.165-25.162-25.165
		c-13.901,0-25.164,11.269-25.164,25.165c0,2.583,0.392,5.078,1.117,7.422c1.411-0.552,2.86-0.96,4.36-1.154
		c2.735-0.347,5.735,0.256,8.891,1.004c-0.071-0.634-0.114-1.307-0.114-2.03h3.872c0.07,1.209,0.225,2.192,0.438,3.007
		c1.347,0.287,2.688,0.536,4.015,0.657c0.488,0.048,1.024,0.052,1.57,0.05v-8.482c-3.167-0.602-5.507-1.602-7.018-2.998
		c-1.509-1.404-2.264-3.343-2.264-5.824c0-2.219,0.811-4.221,2.438-5.994c1.631-1.78,3.91-2.688,6.844-2.719v-2.911h2.082v2.871
		c2.899,0.205,5.13,1.061,6.686,2.565c1.556,1.509,2.37,3.5,2.441,5.978h-3.832c-0.101-1.11-0.397-2.068-0.895-2.871
		c-0.926-1.475-2.386-2.248-4.4-2.322v10.663c3.383,0.946,5.683,1.838,6.892,2.672c1.975,1.374,2.958,3.399,2.958,6.085
		c0,1.394-0.166,2.63-0.492,3.738c1.648,0.681,3.132,1.98,3.501,4.494c0.208,1.414-0.128,2.71-0.958,3.741
		C54.202,50.273,51.434,51.011,48.295,51.392z"/>
</g>
</svg>